<svg width="168.11998291015624px" height="76.43999023437499px" xmlns="http://www.w3.org/2000/svg" viewBox="165.94000854492188 36.780004882812506 168.11998291015624 76.43999023437499" style="background: rgba(0, 0, 0, 0) none repeat scroll 0% 0%;" preserveAspectRatio="xMidYMid"><defs><filter id="editing-hole" x="-100%" y="-100%" width="300%" height="300%"><feFlood flood-color="#000000" result="black"></feFlood><feMorphology operator="dilate" radius="2" in="SourceGraphic" result="erode"></feMorphology><feGaussianBlur in="erode" stdDeviation="4" result="blur"></feGaussianBlur><feOffset in="blur" dx="2" dy="2" result="offset"></feOffset><feComposite operator="atop" in="offset" in2="black" result="merge"></feComposite><feComposite operator="in" in="merge" in2="SourceGraphic" result="inner-shadow"></feComposite></filter></defs><g filter="url(#editing-hole)"><g transform="translate(196.35937881469727, 85.36523628234863)"><path d="M1.56 0L1.56-1.47L1.56-1.47Q3.91-1.55 5.45-2.02L5.45-2.02L5.45-2.02Q7-2.48 7.92-3.52L7.92-3.52L7.92-3.52Q8.84-4.55 9.23-6.23L9.23-6.23L9.23-6.23Q9.61-7.91 9.61-10.44L9.61-10.44L9.61-10.44Q9.61-13 9.13-14.61L9.13-14.61L9.13-14.61Q8.64-16.22 7.63-17.13L7.63-17.13L7.63-17.13Q6.63-18.05 5.06-18.38L5.06-18.38L5.06-18.38Q3.50-18.70 1.34-18.70L1.34-18.70L1.34-20.17L24.34-20.17L29.56-14.17L33.22-20.17L56.09-20.17L56.09-18.70L56.09-18.70Q53.94-18.70 52.41-18.38L52.41-18.38L52.41-18.38Q50.89-18.05 49.92-17.13L49.92-17.13L49.92-17.13Q48.95-16.22 48.51-14.61L48.51-14.61L48.51-14.61Q48.06-13 48.06-10.44L48.06-10.44L48.06-10.44Q48.06-7.91 48.44-6.23L48.44-6.23L48.44-6.23Q48.81-4.55 49.73-3.52L49.73-3.52L49.73-3.52Q50.66-2.48 52.20-2.02L52.20-2.02L52.20-2.02Q53.75-1.55 56.09-1.47L56.09-1.47L56.09 0L26.59 0L26.59-1.47L26.59-1.47Q28.14-1.52 29.24-1.86L29.24-1.86L29.24-1.86Q30.34-2.20 31.08-2.80L31.08-2.80L31.08-2.80Q31.81-3.39 32.24-4.20L32.24-4.20L32.24-4.20Q32.67-5.02 32.88-5.99L32.88-5.99L32.88-5.99Q33.09-6.97 33.16-8.09L33.16-8.09L33.16-8.09Q33.22-9.22 33.22-10.44L33.22-10.44L33.22-16.33L22.64 0.56L11.50-13.25L11.50-10.44L11.50-10.44Q11.50-9.22 11.55-8.09L11.55-8.09L11.55-8.09Q11.61-6.97 11.83-5.99L11.83-5.99L11.83-5.99Q12.05-5.02 12.48-4.20L12.48-4.20L12.48-4.20Q12.91-3.39 13.64-2.80L13.64-2.80L13.64-2.80Q14.38-2.22 15.47-1.87L15.47-1.87L15.47-1.87Q16.56-1.52 18.13-1.47L18.13-1.47L18.13 0L1.56 0ZM58.52 0L58.52-1.47L58.52-1.47Q60.86-1.55 62.41-2.02L62.41-2.02L62.41-2.02Q63.95-2.48 64.88-3.52L64.88-3.52L64.88-3.52Q65.80-4.55 66.18-6.23L66.18-6.23L66.18-6.23Q66.56-7.91 66.56-10.44L66.56-10.44L66.56-10.44Q66.56-12.14 66.37-13.42L66.37-13.42L66.37-13.42Q66.17-14.70 65.76-15.62L65.76-15.62L65.76-15.62Q65.34-16.53 64.70-17.13L64.70-17.13L64.70-17.13Q64.05-17.73 63.16-18.08L63.16-18.08L63.16-18.08Q62.27-18.42 61.11-18.56L61.11-18.56L61.11-18.56Q59.95-18.70 58.52-18.70L58.52-18.70L58.52-20.17L83.83-20.17L83.83-20.17Q89.69-20.17 93.88-19.90L93.88-19.90L93.88-19.90Q98.06-19.63 100.74-18.86L100.74-18.86L100.74-18.86Q103.42-18.09 104.68-16.73L104.68-16.73L104.68-16.73Q105.94-15.36 105.94-13.17L105.94-13.17L105.94-13.17Q105.94-11.80 105.48-10.77L105.48-10.77L105.48-10.77Q105.03-9.75 104.21-9.02L104.21-9.02L104.21-9.02Q103.39-8.30 102.24-7.83L102.24-7.83L102.24-7.83Q101.09-7.36 99.71-7.09L99.71-7.09L99.71-7.09Q98.33-6.81 96.76-6.71L96.76-6.71L96.76-6.71Q95.19-6.61 93.50-6.61L93.50-6.61L93.50-6.61Q92.08-6.61 90.74-6.66L90.74-6.66L90.74-6.66Q89.41-6.72 88.13-6.79L88.13-6.79L88.13-6.79Q86.84-6.86 85.58-6.92L85.58-6.92L85.58-6.92Q84.31-6.98 83.03-7.02L83.03-7.02L83.03-7.02Q83.28-5.50 83.88-4.48L83.88-4.48L83.88-4.48Q84.47-3.45 85.55-2.81L85.55-2.81L85.55-2.81Q86.64-2.17 88.27-1.86L88.27-1.86L88.27-1.86Q89.91-1.55 92.25-1.47L92.25-1.47L92.25 0L58.52 0ZM82.84-8.95L82.84-8.95L82.84-8.95Q84.23-9.05 85.40-9.34L85.40-9.34L85.40-9.34Q86.56-9.63 87.40-10.18L87.40-10.18L87.40-10.18Q88.23-10.73 88.70-11.58L88.70-11.58L88.70-11.58Q89.16-12.42 89.16-13.64L89.16-13.64L89.16-13.64Q89.16-14.98 88.72-15.85L88.72-15.85L88.72-15.85Q88.28-16.72 87.46-17.24L87.46-17.24L87.46-17.24Q86.64-17.77 85.46-17.99L85.46-17.99L85.46-17.99Q84.28-18.22 82.81-18.28L82.81-18.28L82.81-10.44L82.81-10.44Q82.81-10.03 82.81-9.67L82.81-9.67L82.81-9.67Q82.81-9.31 82.84-8.95Z" fill="#ccc"></path></g></g><style>text {
  font-size: 64px;
  font-family: Arial Black;
  dominant-baseline: central;
  text-anchor: middle;
}</style></svg>